# Blender v2.79 (sub 0) OBJ File: ''
# www.blender.org
mtllib umbrela.mtl
o Cylinder
v -1.881243 -1.091484 -1.417551
v -1.881243 2.874445 -1.417551
v -1.868288 -1.091484 -1.416434
v -1.868288 2.874445 -1.416434
v -1.855830 -1.091484 -1.413124
v -1.855830 2.874445 -1.413124
v -1.844350 -1.091484 -1.407749
v -1.844350 2.874445 -1.407749
v -1.834287 -1.091484 -1.400515
v -1.834287 2.874445 -1.400515
v -1.826029 -1.091484 -1.391701
v -1.826029 2.874445 -1.391701
v -1.819892 -1.091484 -1.381645
v -1.819892 2.874445 -1.381645
v -1.816113 -1.091484 -1.370733
v -1.816113 2.874445 -1.370733
v -1.814837 -1.091484 -1.359385
v -1.814837 2.874445 -1.359385
v -1.816113 -1.091484 -1.348038
v -1.816113 2.874445 -1.348038
v -1.819892 -1.091484 -1.337126
v -1.819892 2.874445 -1.337126
v -1.826029 -1.091484 -1.327070
v -1.826029 2.874445 -1.327070
v -1.834287 -1.091484 -1.318256
v -1.834287 2.874445 -1.318256
v -1.844350 -1.091484 -1.311022
v -1.844350 2.874445 -1.311022
v -1.855830 -1.091484 -1.305647
v -1.855830 2.874445 -1.305647
v -1.868288 -1.091484 -1.302337
v -1.868288 2.874445 -1.302337
v -1.881243 -1.091484 -1.301220
v -1.881243 2.874445 -1.301220
v -1.894198 -1.091484 -1.302337
v -1.894198 2.874445 -1.302337
v -1.906655 -1.091484 -1.305647
v -1.906655 2.874445 -1.305647
v -1.918136 -1.091484 -1.311022
v -1.918136 2.874445 -1.311022
v -1.928199 -1.091484 -1.318256
v -1.928199 2.874445 -1.318256
v -1.936457 -1.091484 -1.327070
v -1.936457 2.874445 -1.327070
v -1.942593 -1.091484 -1.337126
v -1.942593 2.874445 -1.337126
v -1.946372 -1.091484 -1.348038
v -1.946372 2.874445 -1.348038
v -1.947648 -1.091484 -1.359385
v -1.947648 2.874445 -1.359385
v -1.946372 -1.091484 -1.370733
v -1.946372 2.874445 -1.370733
v -1.942593 -1.091484 -1.381645
v -1.942593 2.874445 -1.381645
v -1.936457 -1.091484 -1.391701
v -1.936457 2.874445 -1.391701
v -1.928198 -1.091484 -1.400515
v -1.928198 2.874445 -1.400515
v -1.918136 -1.091484 -1.407749
v -1.918136 2.874445 -1.407749
v -1.906655 -1.091484 -1.413124
v -1.906655 2.874445 -1.413124
v -1.894198 -1.091484 -1.416434
v -1.894198 2.874445 -1.416434
v -1.765156 1.695138 -3.106467
v -1.443908 1.695138 -3.074826
v -1.135006 1.695138 -2.981122
v -0.850320 1.695138 -2.828954
v -0.600790 1.695138 -2.624171
v -0.396007 1.695138 -2.374641
v -0.243839 1.695138 -2.089955
v -0.150135 1.695138 -1.781053
v -0.118495 1.695138 -1.459806
v -0.150135 1.695138 -1.138558
v -0.243839 1.695138 -0.829656
v -0.396007 1.695138 -0.544970
v -0.600790 1.695138 -0.295440
v -0.850320 1.695138 -0.090657
v -1.135006 1.695138 0.061511
v -1.443908 1.695138 0.155215
v -1.765156 1.695138 0.186855
v -2.086404 1.695138 0.155215
v -2.395306 1.695138 0.061510
v -2.679992 1.695138 -0.090658
v -2.929522 1.695138 -0.295441
v -3.134305 1.695138 -0.544971
v -3.286472 1.695138 -0.829657
v -1.765156 4.988460 -1.459806
v -3.380177 1.695138 -1.138560
v -3.411817 1.695138 -1.459807
v -3.380176 1.695138 -1.781055
v -3.286471 1.695138 -2.089957
v -3.134303 1.695138 -2.374643
v -2.929519 1.695138 -2.624172
v -2.679989 1.695138 -2.828956
v -2.395303 1.695138 -2.981123
v -2.086401 1.695138 -3.074827
vn 0.0860 0.0000 -0.9963
vn 0.2568 0.0000 -0.9665
vn 0.4240 0.0000 -0.9057
vn 0.5837 0.0000 -0.8120
vn 0.7297 0.0000 -0.6837
vn 0.8536 0.0000 -0.5209
vn 0.9449 0.0000 -0.3272
vn 0.9937 0.0000 -0.1117
vn 0.9937 0.0000 0.1117
vn 0.9449 0.0000 0.3272
vn 0.8536 0.0000 0.5209
vn 0.7297 0.0000 0.6837
vn 0.5837 0.0000 0.8120
vn 0.4240 0.0000 0.9057
vn 0.2568 0.0000 0.9665
vn 0.0860 0.0000 0.9963
vn -0.0860 0.0000 0.9963
vn -0.2568 0.0000 0.9665
vn -0.4240 0.0000 0.9057
vn -0.5837 0.0000 0.8120
vn -0.7297 0.0000 0.6837
vn -0.8536 0.0000 0.5209
vn -0.9449 0.0000 0.3272
vn -0.9937 0.0000 0.1117
vn -0.9937 0.0000 -0.1117
vn -0.9449 0.0000 -0.3273
vn -0.8536 0.0000 -0.5209
vn -0.7297 0.0000 -0.6837
vn -0.5837 0.0000 -0.8120
vn -0.4240 0.0000 -0.9057
vn 0.0000 1.0000 0.0000
vn -0.2568 0.0000 -0.9665
vn -0.0860 0.0000 -0.9963
vn 0.0000 -1.0000 -0.0000
vn 0.0878 0.4455 -0.8910
vn 0.2599 0.4455 -0.8567
vn 0.4220 0.4455 -0.7896
vn 0.5680 0.4455 -0.6921
vn 0.6921 0.4455 -0.5680
vn 0.7896 0.4455 -0.4220
vn 0.8567 0.4455 -0.2599
vn 0.8910 0.4455 -0.0878
vn 0.8910 0.4455 0.0878
vn 0.8567 0.4455 0.2599
vn 0.7896 0.4455 0.4220
vn 0.6921 0.4455 0.5680
vn 0.5680 0.4455 0.6921
vn 0.4220 0.4455 0.7896
vn 0.2599 0.4455 0.8567
vn 0.0878 0.4455 0.8910
vn -0.0878 0.4455 0.8910
vn -0.2599 0.4455 0.8567
vn -0.4220 0.4455 0.7896
vn -0.5680 0.4455 0.6921
vn -0.6921 0.4455 0.5680
vn -0.7896 0.4455 0.4220
vn -0.8567 0.4455 0.2599
vn -0.8910 0.4455 0.0878
vn -0.8910 0.4455 -0.0878
vn -0.8567 0.4455 -0.2599
vn -0.7896 0.4455 -0.4220
vn -0.6921 0.4455 -0.5680
vn -0.5680 0.4455 -0.6921
vn -0.4220 0.4455 -0.7896
vn -0.2599 0.4455 -0.8567
vn -0.0878 0.4455 -0.8910
usemtl None
s off
f 1//1 2//1 4//1 3//1
f 3//2 4//2 6//2 5//2
f 5//3 6//3 8//3 7//3
f 7//4 8//4 10//4 9//4
f 9//5 10//5 12//5 11//5
f 11//6 12//6 14//6 13//6
f 13//7 14//7 16//7 15//7
f 15//8 16//8 18//8 17//8
f 17//9 18//9 20//9 19//9
f 19//10 20//10 22//10 21//10
f 21//11 22//11 24//11 23//11
f 23//12 24//12 26//12 25//12
f 25//13 26//13 28//13 27//13
f 27//14 28//14 30//14 29//14
f 29//15 30//15 32//15 31//15
f 31//16 32//16 34//16 33//16
f 33//17 34//17 36//17 35//17
f 35//18 36//18 38//18 37//18
f 37//19 38//19 40//19 39//19
f 39//20 40//20 42//20 41//20
f 41//21 42//21 44//21 43//21
f 43//22 44//22 46//22 45//22
f 45//23 46//23 48//23 47//23
f 47//24 48//24 50//24 49//24
f 49//25 50//25 52//25 51//25
f 51//26 52//26 54//26 53//26
f 53//27 54//27 56//27 55//27
f 55//28 56//28 58//28 57//28
f 57//29 58//29 60//29 59//29
f 59//30 60//30 62//30 61//30
f 4//31 2//31 64//31 62//31 60//31 58//31 56//31 54//31 52//31 50//31 48//31 46//31 44//31 42//31 40//31 38//31 36//31 34//31 32//31 30//31 28//31 26//31 24//31 22//31 20//31 18//31 16//31 14//31 12//31 10//31 8//31 6//31
f 61//32 62//32 64//32 63//32
f 63//33 64//33 2//33 1//33
f 1//34 3//34 5//34 7//34 9//34 11//34 13//34 15//34 17//34 19//34 21//34 23//34 25//34 27//34 29//34 31//34 33//34 35//34 37//34 39//34 41//34 43//34 45//34 47//34 49//34 51//34 53//34 55//34 57//34 59//34 61//34 63//34
f 65//35 88//35 66//35
f 66//36 88//36 67//36
f 67//37 88//37 68//37
f 68//38 88//38 69//38
f 69//39 88//39 70//39
f 70//40 88//40 71//40
f 71//41 88//41 72//41
f 72//42 88//42 73//42
f 73//43 88//43 74//43
f 74//44 88//44 75//44
f 75//45 88//45 76//45
f 76//46 88//46 77//46
f 77//47 88//47 78//47
f 78//48 88//48 79//48
f 79//49 88//49 80//49
f 80//50 88//50 81//50
f 81//51 88//51 82//51
f 82//52 88//52 83//52
f 83//53 88//53 84//53
f 84//54 88//54 85//54
f 85//55 88//55 86//55
f 86//56 88//56 87//56
f 87//57 88//57 89//57
f 89//58 88//58 90//58
f 90//59 88//59 91//59
f 91//60 88//60 92//60
f 92//61 88//61 93//61
f 93//62 88//62 94//62
f 94//63 88//63 95//63
f 95//64 88//64 96//64
f 96//65 88//65 97//65
f 97//66 88//66 65//66
f 65//34 66//34 67//34 68//34 69//34 70//34 71//34 72//34 73//34 74//34 75//34 76//34 77//34 78//34 79//34 80//34 81//34 82//34 83//34 84//34 85//34 86//34 87//34 89//34 90//34 91//34 92//34 93//34 94//34 95//34 96//34 97//34
